HIERARCHY
ROOT Hips
{
	OFFSET 0.00000 0.00000 0.00000
	CHANNELS 6 Xposition Yposition Zposition Zrotation Yrotation Xrotation 
	JOINT RightUpLegDummy
	{
		OFFSET 0 0 0
		CHANNELS 3 Zrotation Yrotation Xrotation
		JOINT RightUpLeg
		{
			OFFSET -3.52197 -3.41223 0.04002
			CHANNELS 3 Zrotation Yrotation Xrotation
			JOINT RightLeg
			{
				OFFSET 0.00006 -17.42390 1.60435
				CHANNELS 3 Zrotation Yrotation Xrotation
				JOINT RightFoot
				{
					OFFSET 0.06153 -16.50078 -1.63901
					CHANNELS 3 Zrotation Yrotation Xrotation
					JOINT RightToes
					{
						OFFSET 0.00298 -1.73825 3.34613
						CHANNELS 3 Zrotation Yrotation Xrotation
						End Site
						{
							OFFSET 0.00480 -0.05416 3.85043
						}
					}
				}
			}
		}
	}
	JOINT SpineDummy
	{
		OFFSET 0 0 0
		CHANNELS 3 Zrotation Yrotation Xrotation
		JOINT Spine
		{
			OFFSET 0.00000 4.68130 0.00000
			CHANNELS 3 Zrotation Yrotation Xrotation
			JOINT Spine1
			{
				OFFSET -0.00000 10.10138 0.05002
				CHANNELS 3 Zrotation Yrotation Xrotation
				JOINT HEadDummy
				{
					OFFSET 0 0 0
					CHANNELS 3 Zrotation Yrotation Xrotation
					JOINT Head
					{
						OFFSET -0.00000 3.43865 0.00438
						CHANNELS 3 Zrotation Yrotation Xrotation
						End Site
						{
							OFFSET -0.11417 5.02924 0.98962
						}
					}
				}
				JOINT LeftShoulder1Dummy
				{
					OFFSET 0 0 0
					CHANNELS 3 Zrotation Yrotation Xrotation
					JOINT LeftShoulder1
					{
						OFFSET 3.53937 -0.14262 -0.08662
						CHANNELS 3 Zrotation Yrotation Xrotation
						JOINT LeftArm
						{
							OFFSET 4.04833 -0.00133 0.12681
							CHANNELS 3 Zrotation Yrotation Xrotation
							JOINT LeftForeArm
							{
								OFFSET 10.33880 -0.01036 -0.55515
								CHANNELS 3 Zrotation Yrotation Xrotation
								JOINT LeftHand
								{
									OFFSET 8.69677 0.07543 0.40060
									CHANNELS 3 Zrotation Yrotation Xrotation
									End Site
									{
										OFFSET 5.28377 -0.21905 0.59205
									}
								}
							}
						}
					}
				}
				JOINT RightShoulderDummy
				{
					OFFSET 0 0 0
					CHANNELS 3 Zrotation Yrotation Xrotation
					JOINT RightShoulder
					{
						OFFSET -3.53937 -0.14262 -0.08660
						CHANNELS 3 Zrotation Yrotation Xrotation
						JOINT RightArm
						{
							OFFSET -4.04833 -0.00133 0.12683
							CHANNELS 3 Zrotation Yrotation Xrotation
							JOINT RightForeArm
							{
								OFFSET -10.37987 -0.01039 -0.55511
								CHANNELS 3 Zrotation Yrotation Xrotation
								JOINT RightHand
								{
									OFFSET -8.67398 0.07538 0.40058
									CHANNELS 3 Zrotation Yrotation Xrotation
									End Site
									{
										OFFSET -5.24810 -0.21916 0.59204
									}
								}
							}
						}
					}
				}
			}
		}
	}
	JOINT LeftUpLegDummy
	{
		OFFSET 0 0 0
		CHANNELS 3 Zrotation Yrotation Xrotation
		JOINT LeftUpLeg
		{
			OFFSET 3.52197 -3.41223 0.04002
			CHANNELS 3 Zrotation Yrotation Xrotation
			JOINT LeftLeg
			{
				OFFSET -0.00012 -17.42399 1.60337
				CHANNELS 3 Zrotation Yrotation Xrotation
				JOINT LeftFoot
				{
					OFFSET -0.09972 -16.50070 -1.63802
					CHANNELS 3 Zrotation Yrotation Xrotation
					JOINT LeftToes
					{
						OFFSET -0.01575 -1.73823 3.34611
						CHANNELS 3 Zrotation Yrotation Xrotation
						End Site
						{
							OFFSET 0.03150 -0.01868 3.85031
						}
					}
				}
			}
		}
	}
}
MOTION
Frames: 12
Frame Time: 0.033333
27.6749 39.6513 61.2199 -175.4560 -0.2599 176.0480 0.0000 0.0000 0.0000 0.2784 -2.2961 -1.2796 -1.9786 -6.6878 9.3058 4.7638 -0.2896 -4.6060 0.0000 -0.0000 0.0000 0.0000 0.0000 0.0000 0.5834 0.1382 3.5510 2.7955 -0.5158 4.7572 -0.0000 0.0000 -0.0000 -1.5188 -6.0943 47.3489 -0.0000 0.0000 -0.0000 -32.0957 -2.5693 2.3154 -43.5072 -18.0891 -15.0228 -11.4558 5.0471 50.4068 15.9828 -3.6717 -1.2215 -0.0000 0.0000 -0.0000 34.8370 5.1951 3.5500 43.2775 4.3748 -12.8384 11.9075 3.1697 22.2684 -13.4555 2.4063 -0.8856 0.0000 0.0000 0.0000 2.2915 3.2145 -0.8918 2.1607 9.5593 12.7301 4.2683 -0.0459 -8.9352 0.0000 0.0000 -0.0000
27.6814 39.6536 61.2327 -175.4350 -0.2267 176.0480 0.0000 0.0000 0.0000 0.2206 -2.2565 -1.4288 -2.1073 -6.9575 9.6734 4.4781 -0.2704 -4.8761 0.0000 -0.0000 0.0000 0.0000 0.0000 0.0000 0.4460 0.0420 3.6650 2.8909 -0.6316 4.6115 -0.0000 0.0000 -0.0000 -1.3912 -5.5862 47.4319 -0.0000 0.0000 -0.0000 -32.1797 -2.5607 2.3154 -43.2158 -18.0773 -15.1375 -11.4398 5.0465 50.4353 15.9870 -3.7220 -1.2284 -0.0000 0.0000 -0.0000 34.7797 5.1967 3.5500 43.3023 4.4017 -12.7149 11.9653 3.2182 21.9299 -12.9828 2.3136 -0.8438 0.0000 0.0000 0.0000 2.2975 3.1813 -0.9109 2.2270 9.6054 12.7246 4.2149 -0.0425 -8.9145 0.0000 0.0000 -0.0000
27.7018 39.6565 61.2449 -175.3620 -0.1083 176.0450 0.0000 0.0000 0.0000 0.1371 -1.9774 -1.5481 -2.3192 -7.4082 10.1050 3.8729 -0.2309 -5.0809 0.0000 -0.0000 0.0000 0.0000 0.0000 0.0000 0.3841 -0.0765 3.8461 2.8776 -0.7443 4.3721 -0.0000 0.0000 -0.0000 -1.3818 -4.9774 47.6768 -0.0000 0.0000 -0.0000 -32.2013 -2.5450 2.3154 -42.8027 -18.0835 -15.3261 -11.3917 5.0427 50.5800 16.1168 -3.7587 -1.2436 -0.0000 0.0000 -0.0000 34.7850 5.2072 3.5545 43.2523 4.3107 -12.4894 12.0566 3.4068 21.3339 -12.2994 2.3256 -0.7990 0.0000 0.0000 0.0000 2.3832 3.1826 -0.9340 2.3253 9.6886 12.7694 4.1287 -0.0370 -8.9128 0.0000 0.0000 -0.0000
27.7319 39.6600 61.2365 -175.2890 0.0392 176.0270 0.0000 0.0000 0.0000 -0.0114 -1.5501 -1.4255 -2.3815 -7.4426 10.1579 3.5575 -0.2107 -5.0556 0.0000 -0.0000 0.0000 0.0000 0.0000 0.0000 0.5219 -0.1015 3.9526 2.6498 -0.7153 4.1920 -0.0000 0.0000 -0.0000 -1.4331 -4.5735 47.9542 -0.0000 0.0000 -0.0000 -32.0547 -2.5536 2.3154 -42.6026 -18.1634 -15.5368 -11.2790 5.0382 50.7748 16.4008 -3.6092 -1.2462 -0.0000 0.0000 -0.0000 34.8771 5.2271 3.5707 43.1302 4.0807 -12.3186 12.1104 3.6074 21.0062 -11.9356 2.4816 -0.7896 0.0000 0.0000 0.0000 2.5254 3.2592 -0.8949 2.3442 9.7395 12.8038 4.0824 -0.0340 -8.9343 0.0000 0.0000 -0.0000
27.7659 39.6671 61.2084 -175.2840 0.1430 176.0580 0.0000 0.0000 0.0000 -0.2801 -1.1958 -1.1775 -2.2407 -6.8472 9.8983 3.5606 -0.2108 -5.1153 0.0000 -0.0000 0.0000 0.0000 0.0000 0.0000 0.7320 -0.0251 3.8907 2.3617 -0.5706 4.0942 -0.0000 0.0000 -0.0000 -1.4089 -4.2751 48.1488 -0.0000 0.0000 -0.0000 -31.8787 -2.5952 2.3154 -42.5994 -18.2746 -15.7119 -11.1502 5.0356 50.9138 16.6539 -3.3171 -1.2262 -0.0000 0.0000 -0.0000 34.9406 5.2332 3.5789 43.0291 3.8287 -12.2868 12.1166 3.6624 21.1427 -11.9930 2.5579 -0.8009 0.0000 0.0000 0.0000 2.6096 3.3216 -0.8277 2.3103 9.7764 12.7227 4.0562 -0.0323 -8.9210 0.0000 0.0000 -0.0000
27.8102 39.6750 61.1727 -175.3280 0.2334 176.1730 0.0000 0.0000 0.0000 -0.6165 -0.9000 -0.9705 -2.1049 -6.2056 9.6117 3.3667 -0.1977 -5.3070 0.0000 -0.0000 0.0000 0.0000 0.0000 0.0000 0.8898 0.0840 3.7431 2.1824 -0.4162 3.9628 -0.0000 0.0000 -0.0000 -1.4079 -4.0597 48.2826 -0.0000 0.0000 -0.0000 -31.8549 -2.6166 2.3154 -42.5547 -18.2585 -15.7579 -11.1313 5.0358 50.9166 16.6675 -3.1732 -1.2075 -0.0000 0.0000 -0.0000 34.8735 5.2188 3.5671 43.0422 3.6728 -12.3661 12.1024 3.5532 21.4838 -12.2582 2.4304 -0.8066 0.0000 0.0000 0.0000 2.6135 3.2990 -0.8231 2.3527 9.8768 12.6048 3.9613 -0.0314 -8.8883 0.0000 0.0000 -0.0000
27.8788 39.6756 61.1298 -175.3890 0.3720 176.3030 0.0000 0.0000 0.0000 -0.9653 -0.6267 -0.7188 -2.0755 -5.8972 9.2707 3.2178 -0.1937 -5.1276 0.0000 -0.0000 0.0000 0.0000 0.0000 0.0000 0.9973 0.1729 3.6366 2.0702 -0.2960 3.7492 -0.0000 0.0000 -0.0000 -1.5150 -4.0178 48.4144 -0.0000 0.0000 -0.0000 -31.9758 -2.5856 2.3154 -42.3625 -18.0198 -15.6652 -11.2622 5.0401 50.7196 16.4476 -3.3239 -1.2113 -0.0000 0.0000 -0.0000 34.7303 5.1983 3.5460 43.1724 3.6230 -12.5187 12.0737 3.3577 21.7597 -12.4647 2.2524 -0.8029 0.0000 0.0000 0.0000 2.6086 3.2387 -0.8714 2.4944 10.0494 12.6049 3.7778 -0.0261 -8.9228 0.0000 0.0000 -0.0000
27.9746 39.6689 61.0702 -175.5010 0.5322 176.3850 0.0000 0.0000 0.0000 -1.3654 -0.6764 -0.2592 -1.9429 -5.2508 8.5744 4.0760 -0.2694 -4.2701 0.0000 -0.0000 0.0000 0.0000 0.0000 0.0000 1.1148 0.2538 3.5144 1.8413 -0.1602 3.5871 -0.0000 0.0000 -0.0000 -1.5580 -4.0283 48.5564 -0.0000 0.0000 -0.0000 -32.0867 -2.5561 2.3154 -42.1501 -17.6597 -15.5647 -11.4159 5.0488 50.3684 16.1842 -3.5252 -1.2180 -0.0000 0.0000 -0.0000 34.6819 5.1947 3.5403 43.3094 3.6104 -12.7457 12.0198 3.1224 21.9661 -12.4396 2.2074 -0.7967 0.0000 0.0000 0.0000 2.6051 3.1948 -0.8606 2.6333 10.2321 12.6613 3.5643 -0.0180 -9.0196 0.0000 0.0000 -0.0000
28.0870 39.6692 60.9931 -175.6700 0.6655 176.4790 0.0000 0.0000 0.0000 -1.7751 -1.2863 0.3182 -1.5512 -3.6857 7.4565 5.8277 -0.4288 -3.1647 0.0000 -0.0000 0.0000 0.0000 0.0000 0.0000 1.3037 0.3594 3.1805 1.4364 0.0324 3.6281 -0.0000 0.0000 -0.0000 -1.4150 -3.7654 48.7585 -0.0000 0.0000 -0.0000 -32.0941 -2.5711 2.3154 -42.0746 -17.3429 -15.5961 -11.4439 5.0578 50.0609 16.0225 -3.4627 -1.1972 -0.0000 0.0000 -0.0000 34.8000 5.2143 3.5587 43.3491 3.6105 -12.9962 11.9502 2.8689 22.1818 -12.1968 2.2767 -0.7875 0.0000 0.0000 0.0000 2.5695 3.1348 -0.7496 2.7304 10.4084 12.5351 3.3376 -0.0125 -9.0440 0.0000 0.0000 -0.0000
28.2087 39.6931 60.9073 -175.7980 0.8108 176.6670 0.0000 0.0000 0.0000 -1.9471 -2.0291 0.8077 -1.1403 -2.0510 6.1900 6.8714 -0.5476 -2.3724 0.0000 -0.0000 0.0000 0.0000 0.0000 0.0000 1.5816 0.4812 2.5862 1.0354 0.2317 3.8561 -0.0000 0.0000 -0.0000 -1.3237 -3.1104 49.1405 -0.0000 0.0000 -0.0000 -32.0402 -2.5733 2.3130 -42.1818 -17.0671 -15.7714 -11.3383 5.0636 49.9125 15.9655 -3.1878 -1.1568 -0.0000 0.0000 -0.0000 34.9369 5.2340 3.5789 43.3420 3.6580 -13.1381 11.8969 2.7114 22.4201 -11.9825 2.3349 -0.7788 0.0000 0.0000 0.0000 2.5593 3.0422 -0.5796 2.8322 10.6115 12.1012 3.0795 -0.0123 -8.8943 0.0000 0.0000 -0.0000
28.3440 39.7441 60.8162 -175.8470 1.0224 176.8910 0.0000 0.0000 0.0000 -1.7141 -2.3073 1.2543 -1.0646 -1.5941 4.9523 6.2501 -0.5235 -1.8985 0.0000 -0.0000 0.0000 0.0000 0.0000 0.0000 1.8403 0.5704 1.9214 0.8489 0.3450 4.1326 -0.0000 0.0000 -0.0000 -1.5251 -2.2399 49.7360 -0.0000 0.0000 -0.0000 -32.0175 -2.5130 2.2887 -42.4152 -16.6580 -15.9947 -11.2146 5.0697 49.7604 15.9485 -3.0337 -1.1354 -0.0000 0.0000 -0.0000 34.9119 5.2279 3.5742 43.4283 3.7172 -13.0459 11.8895 2.8593 22.6242 -12.0066 2.3272 -0.7797 0.0000 0.0000 0.0000 2.6412 2.9739 -0.3060 2.9227 10.8435 11.4028 2.8361 -0.0163 -8.5959 0.0000 0.0000 -0.0000
28.4972 39.8066 60.7161 -175.9380 1.2789 177.0510 0.0000 0.0000 0.0000 -1.3019 -2.2220 1.8333 -1.3116 -2.1086 3.6841 4.9052 -0.4291 -1.4778 0.0000 -0.0000 0.0000 0.0000 0.0000 0.0000 1.9219 0.6051 1.3420 0.8485 0.3652 4.3548 -0.0000 0.0000 -0.0000 -1.8388 -1.3109 50.3927 -0.0000 0.0000 -0.0000 -32.0583 -2.4561 2.2695 -42.6731 -16.0106 -16.1600 -11.1770 5.0801 49.4288 15.8907 -3.1755 -1.1495 -0.0000 0.0000 -0.0000 34.7667 5.2041 3.5516 43.6246 3.6415 -12.6427 11.9338 3.4357 22.5735 -12.1193 2.2930 -0.7839 0.0000 0.0000 0.0000 2.7241 2.9378 0.1414 2.9492 11.1040 10.5299 2.6609 -0.0228 -8.2320 0.0000 0.0000 -0.0000
